<svg xmlns="http://www.w3.org/2000/svg" viewBox="0 0 128 128" width="128" height="128" role="img" aria-label="xmBoard — PCB fan-out: quad IC, a structured trace fan to a via column with short top/bottom escapes (electronics / KiCAD)">
  <title>xmBoard — PCB fan-out: quad IC, a structured trace fan to a via column with short top/bottom escapes (electronics / KiCAD)</title>
  <rect x="6" y="6" width="116" height="116" rx="30" fill="#161B26" stroke="#E5604D" stroke-opacity="0.4" stroke-width="2"/>
  <g transform="translate(2 0)">
  <rect x="34" y="48" width="32" height="32" rx="4" fill="none" stroke="#E5604D" stroke-width="3.49"/>
  <g stroke="#E5604D" stroke-width="2.21" stroke-linecap="round" stroke-linejoin="round">
  <path d="M34 56 H28 M34 64 H28 M34 72 H28"/></g>
  <circle cx="39" cy="53" r="2" fill="#E5604D"/>
  <g stroke="#E5604D" fill="none" stroke-linecap="round" stroke-linejoin="round" stroke-width="3.20">
  <path d="M66 52 H70 L82 40 H92"/>
  <path d="M66 60 H78 L82 56 H92"/>
  <path d="M66 68 H78 L82 72 H92"/>
  <path d="M66 76 H70 L82 88 H92"/>
  <path d="M42 48 V37 M50 48 V37 M58 48 V37"/>
  <path d="M42 80 V91 M50 80 V91 M58 80 V91"/></g>
  <circle cx="92" cy="40" r="4" fill="none" stroke="#E5604D" stroke-width="2.59"/><circle cx="92" cy="40" r="1.5" fill="#E5604D"/>
  <circle cx="92" cy="56" r="4" fill="none" stroke="#E5604D" stroke-width="2.59"/><circle cx="92" cy="56" r="1.5" fill="#E5604D"/>
  <circle cx="92" cy="72" r="4" fill="none" stroke="#E5604D" stroke-width="2.59"/><circle cx="92" cy="72" r="1.5" fill="#E5604D"/>
  <circle cx="92" cy="88" r="4" fill="none" stroke="#E5604D" stroke-width="2.59"/><circle cx="92" cy="88" r="1.5" fill="#E5604D"/>
  <g fill="#E5604D"><circle cx="42" cy="37" r="1.6"/><circle cx="50" cy="37" r="1.6"/><circle cx="58" cy="37" r="1.6"/><circle cx="42" cy="91" r="1.6"/><circle cx="50" cy="91" r="1.6"/><circle cx="58" cy="91" r="1.6"/></g>
  </g>
</svg>
