<svg xmlns="http://www.w3.org/2000/svg" viewBox="0 0 128 128" width="128" height="128" role="img" aria-label="xmFirmware — ζ — UART decode of byte 0x5A (firmware / Zephyr)">
  <title>xmFirmware — ζ — UART decode of byte 0x5A (firmware / Zephyr)</title>
  <rect x="6" y="6" width="116" height="116" rx="30" fill="#161B26" stroke="#46B358" stroke-opacity="0.4" stroke-width="2"/>
  <path d="M74.5546875 21.412109375H45.580078125V28.958984375H40.14453125V15.9765625H86.86328125V21.412109375Q66.693359375 33.31640625 61.34765625 45.89453125Q58.517578125 52.498046875 58.517578125 61.9765625Q58.517578125 72.802734375 61.2578125 77.4521484375Q63.998046875 82.1015625 70.197265625 82.1015625Q84.88671875 82.1015625 86.908203125 92.478515625Q87.896484375 97.46484375 82.1015625 101.642578125Q77.33984375 105.056640625 67.322265625 105.056640625V100.205078125Q76.171875 100.205078125 76.306640625 93.15234375Q76.396484375 87.177734375 67.546875 87.177734375Q54.7890625 87.177734375 47.78125 80.57421875Q40.7734375 73.970703125 40.7734375 61.9765625Q40.7734375 52.72265625 47.69140625 42.974609375Q56.31640625 30.62109375 74.5546875 21.412109375Z" fill="#46B358" opacity="0.100"/>
  <g stroke="#46B358" fill="none" stroke-linecap="round" stroke-linejoin="round" stroke-width="3.32">
  <path d="M26 40 H34 V54 H47.2 V40 H53.8 V54 H60.4 V40 H73.6 V54 H80.2 V40 H86.8 V54 H93.4 V40 H104"/></g>
  <g stroke="#46B358" stroke-width="1.57" opacity="0.45">
  <path d="M34 56 V72 M40.6 56 V72 M93.4 56 V72"/></g>
  <g stroke="#46B358" fill="none" stroke-width="2.98">
  <rect x="33.5" y="72" width="7" height="16" rx="2"/>
  <rect x="41" y="72" width="52" height="16" rx="2"/>
  <rect x="93.5" y="72" width="7" height="16" rx="2"/></g>
  <path d="M54.185546875 79.70849609375Q54.185546875 79.3720703125 54.4140625 79.1435546875Q54.642578125 78.9150390625 54.97265625 78.9150390625Q55.30908203125 78.9150390625 55.53759765625 79.1435546875Q55.76611328125 79.3720703125 55.76611328125 79.70849609375Q55.76611328125 80.03857421875 55.53759765625 80.26708984375Q55.30908203125 80.49560546875 54.97265625 80.49560546875Q54.642578125 80.49560546875 54.4140625 80.270263671875Q54.185546875 80.044921875 54.185546875 79.70849609375ZM54.97265625 76.3759765625Q54.3251953125 76.3759765625 54.02685546875 77.16943359375Q53.728515625 77.962890625 53.728515625 79.70849609375Q53.728515625 81.44775390625 54.02685546875 82.2412109375Q54.3251953125 83.03466796875 54.97265625 83.03466796875Q55.62646484375 83.03466796875 55.9248046875 82.2412109375Q56.22314453125 81.44775390625 56.22314453125 79.70849609375Q56.22314453125 77.962890625 55.9248046875 77.16943359375Q55.62646484375 76.3759765625 54.97265625 76.3759765625ZM51.84326171875 79.70849609375Q51.84326171875 77.24560546875 52.6240234375 76.017333984375Q53.40478515625 74.7890625 54.97265625 74.7890625Q56.546875 74.7890625 57.32763671875 76.01416015625Q58.1083984375 77.2392578125 58.1083984375 79.70849609375Q58.1083984375 82.17138671875 57.32763671875 83.396484375Q56.546875 84.62158203125 54.97265625 84.62158203125Q53.40478515625 84.62158203125 52.6240234375 83.393310546875Q51.84326171875 82.1650390625 51.84326171875 79.70849609375Z M66.1572265625 77.328125 63.76416015625 80.73046875 66.36669921875 84.4375H64.19580078125L62.79931640625 82.04443359375L61.4091796875 84.4375H59.23828125L61.8662109375 80.73046875L59.44775390625 77.328125H61.61865234375L62.79931640625 79.4482421875L63.986328125 77.328125Z M67.94091796875 74.96044921875H73.0888671875V76.61083984375H69.4580078125V78.369140625Q69.6865234375 78.2802734375 69.94677734375 78.239013671875Q70.20703125 78.19775390625 70.4990234375 78.19775390625Q71.908203125 78.19775390625 72.7841796875 79.08642578125Q73.66015625 79.97509765625 73.66015625 81.39697265625Q73.66015625 82.888671875 72.711181640625 83.755126953125Q71.76220703125 84.62158203125 70.12451171875 84.62158203125Q69.51513671875 84.62158203125 68.89306640625 84.52001953125Q68.27099609375 84.41845703125 67.62353515625 84.21533203125V82.52685546875Q68.150390625 82.787109375 68.705810546875 82.917236328125Q69.26123046875 83.04736328125 69.81982421875 83.04736328125Q70.81005859375 83.04736328125 71.32421875 82.625244140625Q71.83837890625 82.203125 71.83837890625 81.39697265625Q71.83837890625 80.654296875 71.327392578125 80.206787109375Q70.81640625 79.75927734375 69.9658203125 79.75927734375Q69.46435546875 79.75927734375 68.959716796875 79.883056640625Q68.455078125 80.0068359375 67.94091796875 80.25439453125Z M78.45263671875 76.67431640625 77.5703125 80.552734375H79.34130859375ZM77.31005859375 74.96044921875H79.6015625L82.15966796875 84.4375H80.287109375L79.703125 82.09521484375H77.19580078125L76.62451171875 84.4375H74.751953125Z" fill="#46B358" opacity="1"/>
</svg>
