<svg xmlns="http://www.w3.org/2000/svg" viewBox="0 0 128 128" width="128" height="128" role="img" aria-label="xmKappa — κ — PCB fan-out: IC footprint, traces and vias (electronics / KiCAD)">
  <title>xmKappa — κ — PCB fan-out: IC footprint, traces and vias (electronics / KiCAD)</title>
  <rect x="6" y="6" width="116" height="116" rx="30" fill="#161B26" stroke="#E5604D" stroke-opacity="0.4" stroke-width="2"/>
  <path d="M60.6962890625 90.9375H27.623046875V84.6748046875H35.4384765625V42.1298828125H27.623046875V35.9189453125H60.6962890625V42.1298828125H53.7607421875V62.1083984375L75.96484375 42.181640625H69.3916015625V35.9189453125H94.494140625V42.181640625H84.2978515625L70.1162109375 54.9140625L93.3037109375 84.6748046875H99.255859375V90.9375H67.68359375V84.6748046875H74.1533203125L58.884765625 65.05859375L53.7607421875 69.61328125V84.6748046875H60.6962890625Z" fill="#E5604D" opacity="0.190"/>
  <g stroke="#E5604D" fill="none" stroke-linecap="round" stroke-linejoin="round" stroke-width="2.98">
  <path d="M59 52 H68 L76 44 H87"/>
  <path d="M59 58 H74 L82 50"/>
  <path d="M59 64 H87"/>
  <path d="M59 70 H74 L82 78"/>
  <path d="M59 76 H68 L76 84 H87"/></g>
  <rect x="41" y="46" width="18" height="36" rx="3" fill="none" stroke="#E5604D" stroke-width="3.50"/>
  <g stroke="#E5604D" stroke-width="1.99">
  <path d="M41 54 H35 M41 64 H35 M41 74 H35"/></g>
  <circle cx="46" cy="51" r="2" fill="#E5604D"/>
  <circle cx="89" cy="44" r="3.5" fill="none" stroke="#E5604D" stroke-width="2.45"/>
  <circle cx="89" cy="44" r="1.2" fill="#E5604D"/>
  <circle cx="84" cy="50" r="3.5" fill="none" stroke="#E5604D" stroke-width="2.45"/>
  <circle cx="84" cy="50" r="1.2" fill="#E5604D"/>
  <circle cx="89" cy="64" r="3.5" fill="none" stroke="#E5604D" stroke-width="2.45"/>
  <circle cx="89" cy="64" r="1.2" fill="#E5604D"/>
  <circle cx="84" cy="78" r="3.5" fill="none" stroke="#E5604D" stroke-width="2.45"/>
  <circle cx="84" cy="78" r="1.2" fill="#E5604D"/>
  <circle cx="89" cy="84" r="3.5" fill="none" stroke="#E5604D" stroke-width="2.45"/>
  <circle cx="89" cy="84" r="1.2" fill="#E5604D"/>
</svg>
