<svg xmlns="http://www.w3.org/2000/svg" viewBox="0 0 128 128" width="128" height="128" role="img" aria-label="xmMotion — the family mark: a tracked robot reading a map, driving forward with motion streaks trailing">
  <title>xmMotion — the family mark: a tracked robot navigating with a map, motion streaks trailing</title>
  <rect x="6" y="6" width="116" height="116" rx="30" fill="#161B26" stroke="#EAEFF7" stroke-opacity="0.5" stroke-width="2.4"/>
  <g transform="translate(-2 2)">
  <g transform="translate(0 58) skewX(-9) translate(0 -58)"><path d="M20 51 L37.9 48.9 A2.1 2.1 0 0 1 37.9 53.1 Z M27 58 L34.9 55.9 A2.1 2.1 0 0 1 34.9 60.1 Z M20 66 L37.9 63.9 A2.1 2.1 0 0 1 37.9 68.1 Z" fill="#EAEFF7"/></g>
  <rect x="38" y="70" width="52" height="15" rx="7.5" fill="none" stroke="#EAEFF7" stroke-width="3.52"/>
  <g fill="#EAEFF7"><circle cx="50" cy="77.5" r="2.8"/><circle cx="64" cy="77.5" r="2.8"/><circle cx="78" cy="77.5" r="2.8"/></g>
  <path d="M91 44 L96 40 L101 44 L106 40 L106 52 L101 56 L96 52 L91 56 Z" fill="none" stroke="#EAEFF7" stroke-width="3.03" stroke-linejoin="round"/>
  <path d="M96 40 V52 M101 44 V56" stroke="#EAEFF7" stroke-width="1.85" stroke-linecap="round"/>
  <path d="M74 62 L83 62" fill="none" stroke="#EAEFF7" stroke-width="3.15" stroke-linecap="round"/>
  <path d="M83 62 l3 -2 M83 62 l2.8 2" fill="none" stroke="#EAEFF7" stroke-width="2.59" stroke-linecap="round"/>
  <g transform="translate(0 60) skewX(-7) translate(0 -60)">
  <rect x="50" y="55" width="28" height="14" rx="4" fill="none" stroke="#EAEFF7" stroke-width="3.70" stroke-linejoin="round"/>
  <path d="M64 55 V47" stroke="#EAEFF7" stroke-width="3.70" stroke-linecap="round"/>
  <circle cx="59" cy="42" r="5" fill="none" stroke="#EAEFF7" stroke-width="3.15"/>
  <circle cx="69" cy="42" r="5" fill="none" stroke="#EAEFF7" stroke-width="3.15"/>
  <g fill="#EAEFF7"><circle cx="60.5" cy="42" r="2"/><circle cx="70.5" cy="42" r="2"/></g>
  </g>
  </g>
</svg>
