<svg xmlns="http://www.w3.org/2000/svg" viewBox="0 0 128 128" width="128" height="128" role="img" aria-label="xmNavigation — flow field converging to a goal (motion algorithms)">
  <title>xmNavigation — flow field converging to a goal (motion algorithms)</title>
  <rect x="6" y="6" width="116" height="116" rx="30" fill="#161B26" stroke="#10B6C6" stroke-opacity="0.4" stroke-width="2"/>
  <g transform="translate(0 -4)">
  <g stroke="#10B6C6" stroke-width="3.15" fill="none" stroke-linecap="round" stroke-linejoin="round">
  <path d="M33.5 35.4 L38.5 48.6 l-5.5 -3.3 M38.5 48.6 l2.0 -6.1"/>
  <path d="M53.1 35.1 L54.9 48.9 l-4.6 -4.5 M54.9 48.9 l3.3 -5.5"/>
  <path d="M72.9 35.1 L71.1 48.9 l-3.3 -5.5 M71.1 48.9 l4.6 -4.5"/>
  <path d="M92.5 35.4 L87.5 48.6 l-2.0 -6.1 M87.5 48.6 l5.5 -3.3"/>
  <path d="M42.8 53.4 L47.2 66.6 l-5.4 -3.5 M47.2 66.6 l2.2 -6.0"/>
  <path d="M63.0 53.0 L63.0 67.0 l-4.0 -5.0 M63.0 67.0 l4.0 -5.0"/>
  <path d="M83.2 53.4 L78.8 66.6 l-2.2 -6.0 M78.8 66.6 l5.4 -3.5"/>
  <path d="M52.3 71.2 L55.7 84.8 l-5.1 -3.9 M55.7 84.8 l2.7 -5.8"/>
  <path d="M73.7 71.2 L70.3 84.8 l-2.7 -5.8 M70.3 84.8 l5.1 -3.9"/>
  <path d="M63.0 87.0 L63.0 101.0 l-4.0 -5.0 M63.0 101.0 l4.0 -5.0"/></g>
</g>
</svg>
