<svg xmlns="http://www.w3.org/2000/svg" viewBox="0 0 128 128" width="128" height="128" role="img" aria-label="xmViewer — 3D gamma-distribution surface (visualization)">
  <title>xmViewer — 3D gamma-distribution surface (visualization)</title>
  <rect x="6" y="6" width="116" height="116" rx="30" fill="#161B26" stroke="#C158DC" stroke-opacity="0.4" stroke-width="2"/>
  <g transform="translate(8.96 8.96) scale(0.86)"><clipPath id="gclip">
  <rect x="6" y="6" width="116" height="116" rx="30"/></clipPath>
  <g clip-path="url(#gclip)">
  <g transform="translate(0.0 22.3)">
  <g stroke="#C158DC" stroke-width="1.75" fill="none" stroke-linecap="round" stroke-linejoin="round">
  <path d="M64.0 78.0 L67.7 76.5 L71.4 75.0 L75.1 73.5 L78.8 72.0 L82.5 70.5 L86.2 69.0 L89.9 67.5 L93.6 66.0 L97.3 64.5 L101.0 62.9 L104.7 61.4 L108.4 59.9 "/>
  <path d="M60.3 76.5 L64.0 75.0 L67.7 73.5 L71.4 72.0 L75.1 70.5 L78.8 69.0 L82.5 67.5 L86.2 66.0 L89.9 64.4 L93.6 62.8 L97.3 61.2 L101.0 59.6 L104.7 58.0 "/>
  <path d="M56.6 75.0 L60.3 73.5 L64.0 72.0 L67.7 70.5 L71.4 69.0 L75.1 67.5 L78.8 66.0 L82.5 64.4 L86.2 62.7 L89.9 60.9 L93.6 58.8 L97.3 56.8 L101.0 55.1 "/>
  <path d="M52.9 73.5 L56.6 72.0 L60.3 70.5 L64.0 69.0 L67.7 67.5 L71.4 66.0 L75.1 64.4 L78.8 62.7 L82.5 60.7 L86.2 58.1 L89.9 54.9 L93.6 51.7 L97.3 49.5 "/>
  <path d="M49.2 72.0 L52.9 70.5 L56.6 69.0 L60.3 67.5 L64.0 66.0 L67.7 64.5 L71.4 62.8 L75.1 60.9 L78.8 58.1 L82.5 53.9 L86.2 48.3 L89.9 42.9 L93.6 39.7 "/>
  <path d="M45.5 70.5 L49.2 69.0 L52.9 67.5 L56.6 66.0 L60.3 64.5 L64.0 62.9 L67.7 61.2 L71.4 58.8 L75.1 54.9 L78.8 48.3 L82.5 39.3 L86.2 30.4 L89.9 25.8 "/>
  <path d="M41.8 69.0 L45.5 67.5 L49.2 66.0 L52.9 64.5 L56.6 63.0 L60.3 61.4 L64.0 59.6 L67.7 56.8 L71.4 51.7 L75.1 42.9 L78.8 30.4 L82.5 18.2 L86.2 12.2 "/>
  <path d="M38.1 67.5 L41.8 66.0 L45.5 64.5 L49.2 63.0 L52.9 61.5 L56.6 59.9 L60.3 58.0 L64.0 55.1 L67.7 49.5 L71.4 39.7 L75.1 25.8 L78.8 12.2 L82.5 5.5 "/>
  <path d="M34.4 66.0 L38.1 64.5 L41.8 63.0 L45.5 61.5 L49.2 60.0 L52.9 58.4 L56.6 56.6 L60.3 53.8 L64.0 48.7 L67.7 39.9 L71.4 27.4 L75.1 15.2 L78.8 9.2 "/>
  <path d="M30.7 64.5 L34.4 63.0 L38.1 61.5 L41.8 60.0 L45.5 58.5 L49.2 56.9 L52.9 55.2 L56.6 52.8 L60.3 48.9 L64.0 42.3 L67.7 33.3 L71.4 24.4 L75.1 19.8 "/>
  <path d="M27.0 63.0 L30.7 61.5 L34.4 60.0 L38.1 58.5 L41.8 57.0 L45.5 55.5 L49.2 53.8 L52.9 51.9 L56.6 49.1 L60.3 44.9 L64.0 39.3 L67.7 33.9 L71.4 30.7 "/>
  <path d="M23.3 61.5 L27.0 60.0 L30.7 58.5 L34.4 57.0 L38.1 55.5 L41.8 54.0 L45.5 52.4 L49.2 50.7 L52.9 48.7 L56.6 46.1 L60.3 42.9 L64.0 39.7 L67.7 37.5 "/>
  <path d="M19.6 60.0 L23.3 58.5 L27.0 57.0 L30.7 55.5 L34.4 54.0 L38.1 52.5 L41.8 51.0 L45.5 49.4 L49.2 47.7 L52.9 45.9 L56.6 43.8 L60.3 41.8 L64.0 40.1 "/>
  <path d="M64.0 78.0 L60.3 76.5 L56.6 75.0 L52.9 73.5 L49.2 72.0 L45.5 70.5 L41.8 69.0 L38.1 67.5 L34.4 66.0 L30.7 64.5 L27.0 63.0 L23.3 61.5 L19.6 60.0 "/>
  <path d="M67.7 76.5 L64.0 75.0 L60.3 73.5 L56.6 72.0 L52.9 70.5 L49.2 69.0 L45.5 67.5 L41.8 66.0 L38.1 64.5 L34.4 63.0 L30.7 61.5 L27.0 60.0 L23.3 58.5 "/>
  <path d="M71.4 75.0 L67.7 73.5 L64.0 72.0 L60.3 70.5 L56.6 69.0 L52.9 67.5 L49.2 66.0 L45.5 64.5 L41.8 63.0 L38.1 61.5 L34.4 60.0 L30.7 58.5 L27.0 57.0 "/>
  <path d="M75.1 73.5 L71.4 72.0 L67.7 70.5 L64.0 69.0 L60.3 67.5 L56.6 66.0 L52.9 64.5 L49.2 63.0 L45.5 61.5 L41.8 60.0 L38.1 58.5 L34.4 57.0 L30.7 55.5 "/>
  <path d="M78.8 72.0 L75.1 70.5 L71.4 69.0 L67.7 67.5 L64.0 66.0 L60.3 64.5 L56.6 63.0 L52.9 61.5 L49.2 60.0 L45.5 58.5 L41.8 57.0 L38.1 55.5 L34.4 54.0 "/>
  <path d="M82.5 70.5 L78.8 69.0 L75.1 67.5 L71.4 66.0 L67.7 64.5 L64.0 62.9 L60.3 61.4 L56.6 59.9 L52.9 58.4 L49.2 56.9 L45.5 55.5 L41.8 54.0 L38.1 52.5 "/>
  <path d="M86.2 69.0 L82.5 67.5 L78.8 66.0 L75.1 64.4 L71.4 62.8 L67.7 61.2 L64.0 59.6 L60.3 58.0 L56.6 56.6 L52.9 55.2 L49.2 53.8 L45.5 52.4 L41.8 51.0 "/>
  <path d="M89.9 67.5 L86.2 66.0 L82.5 64.4 L78.8 62.7 L75.1 60.9 L71.4 58.8 L67.7 56.8 L64.0 55.1 L60.3 53.8 L56.6 52.8 L52.9 51.9 L49.2 50.7 L45.5 49.4 "/>
  <path d="M93.6 66.0 L89.9 64.4 L86.2 62.7 L82.5 60.7 L78.8 58.1 L75.1 54.9 L71.4 51.7 L67.7 49.5 L64.0 48.7 L60.3 48.9 L56.6 49.1 L52.9 48.7 L49.2 47.7 "/>
  <path d="M97.3 64.5 L93.6 62.8 L89.9 60.9 L86.2 58.1 L82.5 53.9 L78.8 48.3 L75.1 42.9 L71.4 39.7 L67.7 39.9 L64.0 42.3 L60.3 44.9 L56.6 46.1 L52.9 45.9 "/>
  <path d="M101.0 62.9 L97.3 61.2 L93.6 58.8 L89.9 54.9 L86.2 48.3 L82.5 39.3 L78.8 30.4 L75.1 25.8 L71.4 27.4 L67.7 33.3 L64.0 39.3 L60.3 42.9 L56.6 43.8 "/>
  <path d="M104.7 61.4 L101.0 59.6 L97.3 56.8 L93.6 51.7 L89.9 42.9 L86.2 30.4 L82.5 18.2 L78.8 12.2 L75.1 15.2 L71.4 24.4 L67.7 33.9 L64.0 39.7 L60.3 41.8 "/>
  <path d="M108.4 59.9 L104.7 58.0 L101.0 55.1 L97.3 49.5 L93.6 39.7 L89.9 25.8 L86.2 12.2 L82.5 5.5 L78.8 9.2 L75.1 19.8 L71.4 30.7 L67.7 37.5 L64.0 40.1 "/></g></g></g>
</g>
</svg>
