<svg xmlns="http://www.w3.org/2000/svg" viewBox="0 0 128 128" width="128" height="128" role="img" aria-label="xmZeta (Zeta) — MCU firmware">
  <title>xmZeta — ζ — MCU firmware (Zephyr): a microcontroller running a signal</title>
  <rect x="6" y="6" width="116" height="116" rx="30" fill="#161B26" stroke="#46B358" stroke-opacity="0.4" stroke-width="2"/>
  <text x="64" y="62" font-family="Georgia, serif" font-size="92" font-weight="700" fill="#46B358" opacity="0.10" text-anchor="middle" dominant-baseline="central">&#950;</text>
  <!-- function: MCU chip with pins and a firmware pulse -->
  <g stroke="#46B358" stroke-width="4" fill="none" stroke-linecap="round" stroke-linejoin="round">
    <rect x="44" y="42" width="40" height="40" rx="5"/>
    <g stroke-width="3">
      <path d="M44 52 H36 M44 62 H36 M44 72 H36"/>
      <path d="M84 52 H92 M84 62 H92 M84 72 H92"/>
      <path d="M54 42 V34 M64 42 V34 M74 42 V34"/>
      <path d="M54 82 V90 M64 82 V90 M74 82 V90"/>
      <path d="M53 65 H59 V57 H65 V65 H71 V59 H75"/>
    </g>
    <circle cx="51" cy="49" r="2" fill="#46B358" stroke="none"/>
  </g>
</svg>
