<svg xmlns="http://www.w3.org/2000/svg" viewBox="0 0 128 128" width="128" height="128" role="img" aria-label="xmFirmware — ζ (avatar)">
  <title>xmFirmware — ζ (avatar)</title>
  <rect x="6" y="6" width="116" height="116" rx="30" fill="#161B26" stroke="#46B358" stroke-opacity="0.4" stroke-width="2"/>
  <path fill="#46B358" d="M80.79724167047813 27.999999999999993V32.46596066565809Q66.27379235126482 39.43721633888048 59.52038841783063 49.42208774583963Q55.38120536185483 55.558245083207254 55.3448967385568 64.01815431164901Q55.308588115258765 73.6036308623298 58.08619779755831 77.74281391830559Q60.863807479857854 81.88199697428139 68.08922351616648 81.88199697428139Q79.4538226084509 81.84568835098335 81.01509341026633 89.83358547655068Q81.81388312282306 93.97276853252647 77.92886042993351 97.24054462934947Q74.66108433311051 100.0 67.72613728318615 100.0V96.0786686838124Q74.9878619427928 96.0786686838124 74.9878619427928 90.37821482602118Q74.9878619427928 85.54916792738275 67.90768039967631 85.54916792738275Q57.741265876227 85.51285930408471 52.65805861450234 79.99394856278366Q47.538542729479644 74.40242057488653 47.538542729479644 64.01815431164901Q47.538542729479644 56.79273827534039 53.63839144354924 46.59001512859304Q58.6126728353798 38.27534039334341 72.37364106533441 32.46596066565809H50.66108433311051V37.69440242057488H46.84867888681701V27.999999999999993Z"/>
</svg>
