<svg xmlns="http://www.w3.org/2000/svg" viewBox="0 0 128 128" width="128" height="128" role="img" aria-label="xmViewer — γ (avatar)">
  <title>xmViewer — γ (avatar)</title>
  <rect x="6" y="6" width="116" height="116" rx="30" fill="#161B26" stroke="#C158DC" stroke-opacity="0.4" stroke-width="2"/>
  <path fill="#C158DC" d="M69.48057321818354 76.43184967258233Q72.47436651798424 90.5316503748695 69.6737211730094 95.7466451551675Q67.40423270380563 99.8993261839233 64.07243048305969 99.99590016133624Q58.95400968017462 100.14076112745562 56.73280819967733 95.16720129068995Q54.22188478694126 89.56591060074024 60.9337762171396 78.5564771756667L47.17198443579767 33.16670779159153H38.67347442346019V27.999999999999993H55.09105058365759L67.5973806586315 69.71995824238398Q78.55852709499857 54.99242668691278 79.86227579007308 44.852159058555564Q80.49000664325709 40.07174717661573 79.28283192559553 36.83651893328271Q77.35135237733701 31.669811141691177 75.03357691942679 30.84893233368131V27.999999999999993H80.44171965455064Q86.04301034450033 31.3800892094524 87.39504602828129 34.22902154313371Q89.32652557653981 38.2851285944766 89.32652557653981 40.84433899591914Q89.32652557653981 45.52817690044604 84.35296573977413 54.799278732086925Q82.42148619151561 58.42080288507165 69.48057321818354 76.43184967258233Z"/>
</svg>
